<mxfile host="app.diagrams.net" agent="Mozilla/5.0 (Windows NT 10.0; Win64; x64) AppleWebKit/537.36 (KHTML, like Gecko) Chrome/131.0.0.0 Safari/537.36" version="24.8.6">
  <diagram name="PÃ¡gina-1" id="qOhjmyLIQ1ehZgUN96Tk">
    <mxGraphModel dx="4783" dy="2246" grid="1" gridSize="10" guides="1" tooltips="1" connect="1" arrows="1" fold="1" page="1" pageScale="1" pageWidth="827" pageHeight="1169" math="0" shadow="0">
      <root>
        <mxCell id="0" />
        <mxCell id="1" parent="0" />
        <mxCell id="S_Y1Q7DFmcPcI0DwbEz_-1" value="" style="sketch=0;points=[[0,0,0],[0.25,0,0],[0.5,0,0],[0.75,0,0],[1,0,0],[1,0.25,0],[1,0.5,0],[1,0.75,0],[1,1,0],[0.75,1,0],[0.5,1,0],[0.25,1,0],[0,1,0],[0,0.75,0],[0,0.5,0],[0,0.25,0]];rounded=1;absoluteArcSize=1;arcSize=2;html=1;strokeColor=none;gradientColor=none;shadow=0;dashed=0;fontSize=12;fontColor=#9E9E9E;align=left;verticalAlign=top;spacing=10;spacingTop=-4;whiteSpace=wrap;fillColor=#FFF8E1;" vertex="1" parent="1">
          <mxGeometry x="1395" y="960" width="475" height="140" as="geometry" />
        </mxCell>
        <mxCell id="S_Y1Q7DFmcPcI0DwbEz_-2" value="" style="sketch=0;points=[[0,0,0],[0.25,0,0],[0.5,0,0],[0.75,0,0],[1,0,0],[1,0.25,0],[1,0.5,0],[1,0.75,0],[1,1,0],[0.75,1,0],[0.5,1,0],[0.25,1,0],[0,1,0],[0,0.75,0],[0,0.5,0],[0,0.25,0]];rounded=1;absoluteArcSize=1;arcSize=2;html=1;strokeColor=none;gradientColor=none;shadow=0;dashed=0;fontSize=12;fontColor=#9E9E9E;align=left;verticalAlign=top;spacing=10;spacingTop=-4;whiteSpace=wrap;fillColor=#F1F8E9;" vertex="1" parent="1">
          <mxGeometry x="1290" y="600" width="140" height="180" as="geometry" />
        </mxCell>
        <mxCell id="S_Y1Q7DFmcPcI0DwbEz_-3" value="" style="sketch=0;points=[[0,0,0],[0.25,0,0],[0.5,0,0],[0.75,0,0],[1,0,0],[1,0.25,0],[1,0.5,0],[1,0.75,0],[1,1,0],[0.75,1,0],[0.5,1,0],[0.25,1,0],[0,1,0],[0,0.75,0],[0,0.5,0],[0,0.25,0]];rounded=1;absoluteArcSize=1;arcSize=2;html=1;strokeColor=none;gradientColor=none;shadow=0;dashed=0;fontSize=12;fontColor=#9E9E9E;align=left;verticalAlign=top;spacing=10;spacingTop=-4;whiteSpace=wrap;fillColor=#FFF8E1;" vertex="1" parent="1">
          <mxGeometry x="790" y="960" width="580" height="140" as="geometry" />
        </mxCell>
        <mxCell id="S_Y1Q7DFmcPcI0DwbEz_-4" value="ARQUITETURA" style="text;strokeColor=none;fillColor=none;html=1;fontSize=24;fontStyle=1;verticalAlign=middle;align=center;" vertex="1" parent="1">
          <mxGeometry x="706" y="290" width="100" height="40" as="geometry" />
        </mxCell>
        <mxCell id="S_Y1Q7DFmcPcI0DwbEz_-5" value="Threat Actors" style="shape=table;startSize=30;container=1;collapsible=0;childLayout=tableLayout;fillColor=#F8CECC;strokeColor=#B85450;fontStyle=1;shadow=1;swimlaneFillColor=#FFFFFF;fontColor=#000000;whiteSpace=wrap;html=1;" vertex="1" parent="1">
          <mxGeometry x="1916" y="410" width="520" height="220" as="geometry" />
        </mxCell>
        <mxCell id="S_Y1Q7DFmcPcI0DwbEz_-6" value="" style="shape=tableRow;horizontal=0;startSize=0;swimlaneHead=0;swimlaneBody=0;strokeColor=inherit;top=0;left=0;bottom=0;right=0;collapsible=0;dropTarget=0;fillColor=inherit;points=[[0,0.5],[1,0.5]];portConstraint=eastwest;fontSize=16;fontColor=#000000;" vertex="1" parent="S_Y1Q7DFmcPcI0DwbEz_-5">
          <mxGeometry y="30" width="520" height="44" as="geometry" />
        </mxCell>
        <mxCell id="S_Y1Q7DFmcPcI0DwbEz_-7" value="ID" style="html=1;whiteSpace=wrap;connectable=0;strokeColor=inherit;overflow=hidden;fillColor=none;pointerEvents=1;fontColor=#000000;fontStyle=1" vertex="1" parent="S_Y1Q7DFmcPcI0DwbEz_-6">
          <mxGeometry width="149" height="44" as="geometry">
            <mxRectangle width="149" height="44" as="alternateBounds" />
          </mxGeometry>
        </mxCell>
        <mxCell id="S_Y1Q7DFmcPcI0DwbEz_-8" value="Description" style="html=1;whiteSpace=wrap;connectable=0;strokeColor=inherit;overflow=hidden;fillColor=none;pointerEvents=1;fontColor=#000000;fontStyle=1" vertex="1" parent="S_Y1Q7DFmcPcI0DwbEz_-6">
          <mxGeometry x="149" width="371" height="44" as="geometry">
            <mxRectangle width="371" height="44" as="alternateBounds" />
          </mxGeometry>
        </mxCell>
        <mxCell id="S_Y1Q7DFmcPcI0DwbEz_-9" value="" style="shape=tableRow;horizontal=0;startSize=0;swimlaneHead=0;swimlaneBody=0;strokeColor=inherit;top=0;left=0;bottom=0;right=0;collapsible=0;dropTarget=0;fillColor=none;points=[[0,0.5],[1,0.5]];portConstraint=eastwest;fontSize=16;fontColor=#000000;" vertex="1" parent="S_Y1Q7DFmcPcI0DwbEz_-5">
          <mxGeometry y="74" width="520" height="42" as="geometry" />
        </mxCell>
        <mxCell id="S_Y1Q7DFmcPcI0DwbEz_-10" value="TA01" style="html=1;whiteSpace=wrap;connectable=0;strokeColor=inherit;overflow=hidden;fillColor=none;pointerEvents=1;fontColor=#000000;fontStyle=1" vertex="1" parent="S_Y1Q7DFmcPcI0DwbEz_-9">
          <mxGeometry width="149" height="42" as="geometry">
            <mxRectangle width="149" height="42" as="alternateBounds" />
          </mxGeometry>
        </mxCell>
        <mxCell id="S_Y1Q7DFmcPcI0DwbEz_-11" value="" style="html=1;whiteSpace=wrap;connectable=0;strokeColor=inherit;overflow=hidden;fillColor=none;pointerEvents=1;fontColor=#000000;fontStyle=1" vertex="1" parent="S_Y1Q7DFmcPcI0DwbEz_-9">
          <mxGeometry x="149" width="371" height="42" as="geometry">
            <mxRectangle width="371" height="42" as="alternateBounds" />
          </mxGeometry>
        </mxCell>
        <mxCell id="S_Y1Q7DFmcPcI0DwbEz_-12" style="shape=tableRow;horizontal=0;startSize=0;swimlaneHead=0;swimlaneBody=0;strokeColor=inherit;top=0;left=0;bottom=0;right=0;collapsible=0;dropTarget=0;fillColor=none;points=[[0,0.5],[1,0.5]];portConstraint=eastwest;fontSize=16;fontColor=#000000;" vertex="1" parent="S_Y1Q7DFmcPcI0DwbEz_-5">
          <mxGeometry y="116" width="520" height="42" as="geometry" />
        </mxCell>
        <mxCell id="S_Y1Q7DFmcPcI0DwbEz_-13" value="TA02" style="html=1;whiteSpace=wrap;connectable=0;strokeColor=inherit;overflow=hidden;fillColor=none;pointerEvents=1;fontColor=#000000;fontStyle=1" vertex="1" parent="S_Y1Q7DFmcPcI0DwbEz_-12">
          <mxGeometry width="149" height="42" as="geometry">
            <mxRectangle width="149" height="42" as="alternateBounds" />
          </mxGeometry>
        </mxCell>
        <mxCell id="S_Y1Q7DFmcPcI0DwbEz_-14" value="" style="html=1;whiteSpace=wrap;connectable=0;strokeColor=inherit;overflow=hidden;fillColor=none;pointerEvents=1;fontColor=#000000;fontStyle=1" vertex="1" parent="S_Y1Q7DFmcPcI0DwbEz_-12">
          <mxGeometry x="149" width="371" height="42" as="geometry">
            <mxRectangle width="371" height="42" as="alternateBounds" />
          </mxGeometry>
        </mxCell>
        <mxCell id="S_Y1Q7DFmcPcI0DwbEz_-15" style="shape=tableRow;horizontal=0;startSize=0;swimlaneHead=0;swimlaneBody=0;strokeColor=inherit;top=0;left=0;bottom=0;right=0;collapsible=0;dropTarget=0;fillColor=none;points=[[0,0.5],[1,0.5]];portConstraint=eastwest;fontSize=16;fontColor=#000000;" vertex="1" parent="S_Y1Q7DFmcPcI0DwbEz_-5">
          <mxGeometry y="158" width="520" height="62" as="geometry" />
        </mxCell>
        <mxCell id="S_Y1Q7DFmcPcI0DwbEz_-16" value="TA03" style="html=1;whiteSpace=wrap;connectable=0;strokeColor=inherit;overflow=hidden;fillColor=none;pointerEvents=1;fontColor=#000000;fontStyle=1" vertex="1" parent="S_Y1Q7DFmcPcI0DwbEz_-15">
          <mxGeometry width="149" height="62" as="geometry">
            <mxRectangle width="149" height="62" as="alternateBounds" />
          </mxGeometry>
        </mxCell>
        <mxCell id="S_Y1Q7DFmcPcI0DwbEz_-17" value="" style="html=1;whiteSpace=wrap;connectable=0;strokeColor=inherit;overflow=hidden;fillColor=none;pointerEvents=1;fontColor=#000000;fontStyle=1" vertex="1" parent="S_Y1Q7DFmcPcI0DwbEz_-15">
          <mxGeometry x="149" width="371" height="62" as="geometry">
            <mxRectangle width="371" height="62" as="alternateBounds" />
          </mxGeometry>
        </mxCell>
        <mxCell id="S_Y1Q7DFmcPcI0DwbEz_-18" value="Threat" style="shape=table;startSize=30;container=1;collapsible=0;childLayout=tableLayout;fillColor=#a20025;strokeColor=#6F0000;fontStyle=1;shadow=1;swimlaneFillColor=#FFFFFF;fontColor=#ffffff;whiteSpace=wrap;html=1;" vertex="1" parent="1">
          <mxGeometry x="2476" y="415" width="760" height="225" as="geometry" />
        </mxCell>
        <mxCell id="S_Y1Q7DFmcPcI0DwbEz_-19" value="" style="shape=tableRow;horizontal=0;startSize=0;swimlaneHead=0;swimlaneBody=0;strokeColor=inherit;top=0;left=0;bottom=0;right=0;collapsible=0;dropTarget=0;fillColor=inherit;points=[[0,0.5],[1,0.5]];portConstraint=eastwest;fontSize=16;fontColor=#000000;" vertex="1" parent="S_Y1Q7DFmcPcI0DwbEz_-18">
          <mxGeometry y="30" width="760" height="40" as="geometry" />
        </mxCell>
        <mxCell id="S_Y1Q7DFmcPcI0DwbEz_-20" value="ID" style="html=1;whiteSpace=wrap;connectable=0;strokeColor=inherit;overflow=hidden;fillColor=none;pointerEvents=1;fontColor=#000000;fontStyle=1" vertex="1" parent="S_Y1Q7DFmcPcI0DwbEz_-19">
          <mxGeometry width="253" height="40" as="geometry">
            <mxRectangle width="253" height="40" as="alternateBounds" />
          </mxGeometry>
        </mxCell>
        <mxCell id="S_Y1Q7DFmcPcI0DwbEz_-21" value="Description" style="html=1;whiteSpace=wrap;connectable=0;strokeColor=inherit;overflow=hidden;fillColor=none;pointerEvents=1;fontColor=#000000;fontStyle=1" vertex="1" parent="S_Y1Q7DFmcPcI0DwbEz_-19">
          <mxGeometry x="253" width="507" height="40" as="geometry">
            <mxRectangle width="507" height="40" as="alternateBounds" />
          </mxGeometry>
        </mxCell>
        <mxCell id="S_Y1Q7DFmcPcI0DwbEz_-22" value="" style="shape=tableRow;horizontal=0;startSize=0;swimlaneHead=0;swimlaneBody=0;strokeColor=inherit;top=0;left=0;bottom=0;right=0;collapsible=0;dropTarget=0;fillColor=none;points=[[0,0.5],[1,0.5]];portConstraint=eastwest;fontSize=16;fontColor=#000000;" vertex="1" parent="S_Y1Q7DFmcPcI0DwbEz_-18">
          <mxGeometry y="70" width="760" height="40" as="geometry" />
        </mxCell>
        <mxCell id="S_Y1Q7DFmcPcI0DwbEz_-23" value="T01" style="html=1;whiteSpace=wrap;connectable=0;strokeColor=inherit;overflow=hidden;fillColor=none;pointerEvents=1;fontColor=#000000;fontStyle=1" vertex="1" parent="S_Y1Q7DFmcPcI0DwbEz_-22">
          <mxGeometry width="253" height="40" as="geometry">
            <mxRectangle width="253" height="40" as="alternateBounds" />
          </mxGeometry>
        </mxCell>
        <mxCell id="S_Y1Q7DFmcPcI0DwbEz_-24" value="" style="html=1;whiteSpace=wrap;connectable=0;strokeColor=inherit;overflow=hidden;fillColor=none;pointerEvents=1;fontColor=#000000;fontStyle=1" vertex="1" parent="S_Y1Q7DFmcPcI0DwbEz_-22">
          <mxGeometry x="253" width="507" height="40" as="geometry">
            <mxRectangle width="507" height="40" as="alternateBounds" />
          </mxGeometry>
        </mxCell>
        <mxCell id="S_Y1Q7DFmcPcI0DwbEz_-25" style="shape=tableRow;horizontal=0;startSize=0;swimlaneHead=0;swimlaneBody=0;strokeColor=inherit;top=0;left=0;bottom=0;right=0;collapsible=0;dropTarget=0;fillColor=none;points=[[0,0.5],[1,0.5]];portConstraint=eastwest;fontSize=16;fontColor=#000000;" vertex="1" parent="S_Y1Q7DFmcPcI0DwbEz_-18">
          <mxGeometry y="110" width="760" height="35" as="geometry" />
        </mxCell>
        <mxCell id="S_Y1Q7DFmcPcI0DwbEz_-26" value="Risco" style="html=1;whiteSpace=wrap;connectable=0;strokeColor=inherit;overflow=hidden;fillColor=none;pointerEvents=1;fontColor=#000000;fontStyle=1" vertex="1" parent="S_Y1Q7DFmcPcI0DwbEz_-25">
          <mxGeometry width="253" height="35" as="geometry">
            <mxRectangle width="253" height="35" as="alternateBounds" />
          </mxGeometry>
        </mxCell>
        <mxCell id="S_Y1Q7DFmcPcI0DwbEz_-27" value="" style="html=1;whiteSpace=wrap;connectable=0;strokeColor=inherit;overflow=hidden;fillColor=none;pointerEvents=1;fontColor=#000000;fontStyle=1" vertex="1" parent="S_Y1Q7DFmcPcI0DwbEz_-25">
          <mxGeometry x="253" width="507" height="35" as="geometry">
            <mxRectangle width="507" height="35" as="alternateBounds" />
          </mxGeometry>
        </mxCell>
        <mxCell id="S_Y1Q7DFmcPcI0DwbEz_-31" style="shape=tableRow;horizontal=0;startSize=0;swimlaneHead=0;swimlaneBody=0;strokeColor=inherit;top=0;left=0;bottom=0;right=0;collapsible=0;dropTarget=0;fillColor=none;points=[[0,0.5],[1,0.5]];portConstraint=eastwest;fontSize=16;fontColor=#000000;" vertex="1" parent="S_Y1Q7DFmcPcI0DwbEz_-18">
          <mxGeometry y="145" width="760" height="40" as="geometry" />
        </mxCell>
        <mxCell id="S_Y1Q7DFmcPcI0DwbEz_-32" value="Agente de ameaÃ§a" style="html=1;whiteSpace=wrap;connectable=0;strokeColor=inherit;overflow=hidden;fillColor=none;pointerEvents=1;fontColor=#000000;fontStyle=1" vertex="1" parent="S_Y1Q7DFmcPcI0DwbEz_-31">
          <mxGeometry width="253" height="40" as="geometry">
            <mxRectangle width="253" height="40" as="alternateBounds" />
          </mxGeometry>
        </mxCell>
        <mxCell id="S_Y1Q7DFmcPcI0DwbEz_-33" value="" style="html=1;whiteSpace=wrap;connectable=0;strokeColor=inherit;overflow=hidden;fillColor=none;pointerEvents=1;fontColor=#000000;fontStyle=1" vertex="1" parent="S_Y1Q7DFmcPcI0DwbEz_-31">
          <mxGeometry x="253" width="507" height="40" as="geometry">
            <mxRectangle width="507" height="40" as="alternateBounds" />
          </mxGeometry>
        </mxCell>
        <mxCell id="S_Y1Q7DFmcPcI0DwbEz_-34" style="shape=tableRow;horizontal=0;startSize=0;swimlaneHead=0;swimlaneBody=0;strokeColor=inherit;top=0;left=0;bottom=0;right=0;collapsible=0;dropTarget=0;fillColor=none;points=[[0,0.5],[1,0.5]];portConstraint=eastwest;fontSize=16;fontColor=#000000;" vertex="1" parent="S_Y1Q7DFmcPcI0DwbEz_-18">
          <mxGeometry y="185" width="760" height="40" as="geometry" />
        </mxCell>
        <mxCell id="S_Y1Q7DFmcPcI0DwbEz_-35" value="Ativo" style="html=1;whiteSpace=wrap;connectable=0;strokeColor=inherit;overflow=hidden;fillColor=none;pointerEvents=1;fontColor=#000000;fontStyle=1" vertex="1" parent="S_Y1Q7DFmcPcI0DwbEz_-34">
          <mxGeometry width="253" height="40" as="geometry">
            <mxRectangle width="253" height="40" as="alternateBounds" />
          </mxGeometry>
        </mxCell>
        <mxCell id="S_Y1Q7DFmcPcI0DwbEz_-36" value="" style="html=1;whiteSpace=wrap;connectable=0;strokeColor=inherit;overflow=hidden;fillColor=none;pointerEvents=1;fontColor=#000000;fontStyle=1" vertex="1" parent="S_Y1Q7DFmcPcI0DwbEz_-34">
          <mxGeometry x="253" width="507" height="40" as="geometry">
            <mxRectangle width="507" height="40" as="alternateBounds" />
          </mxGeometry>
        </mxCell>
        <mxCell id="S_Y1Q7DFmcPcI0DwbEz_-37" value="Security Controls" style="shape=table;startSize=30;container=1;collapsible=0;childLayout=tableLayout;fillColor=#d5e8d4;strokeColor=#82b366;fontStyle=1;swimlaneFillColor=#FFFFFF;fontColor=#000000;whiteSpace=wrap;html=1;" vertex="1" parent="1">
          <mxGeometry x="3377" y="428" width="690" height="120" as="geometry" />
        </mxCell>
        <mxCell id="S_Y1Q7DFmcPcI0DwbEz_-38" value="" style="shape=tableRow;horizontal=0;startSize=0;swimlaneHead=0;swimlaneBody=0;strokeColor=inherit;top=0;left=0;bottom=0;right=0;collapsible=0;dropTarget=0;fillColor=inherit;points=[[0,0.5],[1,0.5]];portConstraint=eastwest;fontSize=16;fontColor=#000000;" vertex="1" parent="S_Y1Q7DFmcPcI0DwbEz_-37">
          <mxGeometry y="30" width="690" height="30" as="geometry" />
        </mxCell>
        <mxCell id="S_Y1Q7DFmcPcI0DwbEz_-39" value="ID" style="html=1;whiteSpace=wrap;connectable=0;strokeColor=inherit;overflow=hidden;fillColor=none;pointerEvents=1;fontColor=#000000;fontStyle=1" vertex="1" parent="S_Y1Q7DFmcPcI0DwbEz_-38">
          <mxGeometry width="230" height="30" as="geometry">
            <mxRectangle width="230" height="30" as="alternateBounds" />
          </mxGeometry>
        </mxCell>
        <mxCell id="S_Y1Q7DFmcPcI0DwbEz_-40" value="Description" style="html=1;whiteSpace=wrap;connectable=0;strokeColor=inherit;overflow=hidden;fillColor=none;pointerEvents=1;fontColor=#000000;fontStyle=1" vertex="1" parent="S_Y1Q7DFmcPcI0DwbEz_-38">
          <mxGeometry x="230" width="460" height="30" as="geometry">
            <mxRectangle width="460" height="30" as="alternateBounds" />
          </mxGeometry>
        </mxCell>
        <mxCell id="S_Y1Q7DFmcPcI0DwbEz_-41" value="" style="shape=tableRow;horizontal=0;startSize=0;swimlaneHead=0;swimlaneBody=0;strokeColor=inherit;top=0;left=0;bottom=0;right=0;collapsible=0;dropTarget=0;fillColor=none;points=[[0,0.5],[1,0.5]];portConstraint=eastwest;fontSize=16;fontColor=#000000;" vertex="1" parent="S_Y1Q7DFmcPcI0DwbEz_-37">
          <mxGeometry y="60" width="690" height="30" as="geometry" />
        </mxCell>
        <mxCell id="S_Y1Q7DFmcPcI0DwbEz_-42" value="C01" style="html=1;whiteSpace=wrap;connectable=0;strokeColor=inherit;overflow=hidden;fillColor=none;pointerEvents=1;fontColor=#000000;fontStyle=1" vertex="1" parent="S_Y1Q7DFmcPcI0DwbEz_-41">
          <mxGeometry width="230" height="30" as="geometry">
            <mxRectangle width="230" height="30" as="alternateBounds" />
          </mxGeometry>
        </mxCell>
        <mxCell id="S_Y1Q7DFmcPcI0DwbEz_-43" value="" style="html=1;whiteSpace=wrap;connectable=0;strokeColor=inherit;overflow=hidden;fillColor=none;pointerEvents=1;fontColor=#000000;fontStyle=1" vertex="1" parent="S_Y1Q7DFmcPcI0DwbEz_-41">
          <mxGeometry x="230" width="460" height="30" as="geometry">
            <mxRectangle width="460" height="30" as="alternateBounds" />
          </mxGeometry>
        </mxCell>
        <mxCell id="S_Y1Q7DFmcPcI0DwbEz_-44" style="shape=tableRow;horizontal=0;startSize=0;swimlaneHead=0;swimlaneBody=0;strokeColor=inherit;top=0;left=0;bottom=0;right=0;collapsible=0;dropTarget=0;fillColor=none;points=[[0,0.5],[1,0.5]];portConstraint=eastwest;fontSize=16;fontColor=#000000;" vertex="1" parent="S_Y1Q7DFmcPcI0DwbEz_-37">
          <mxGeometry y="90" width="690" height="30" as="geometry" />
        </mxCell>
        <mxCell id="S_Y1Q7DFmcPcI0DwbEz_-45" value="Threat" style="html=1;whiteSpace=wrap;connectable=0;strokeColor=inherit;overflow=hidden;fillColor=none;pointerEvents=1;fontColor=#000000;fontStyle=1" vertex="1" parent="S_Y1Q7DFmcPcI0DwbEz_-44">
          <mxGeometry width="230" height="30" as="geometry">
            <mxRectangle width="230" height="30" as="alternateBounds" />
          </mxGeometry>
        </mxCell>
        <mxCell id="S_Y1Q7DFmcPcI0DwbEz_-46" value="" style="html=1;whiteSpace=wrap;connectable=0;strokeColor=inherit;overflow=hidden;fillColor=none;pointerEvents=1;fontColor=#000000;fontStyle=1" vertex="1" parent="S_Y1Q7DFmcPcI0DwbEz_-44">
          <mxGeometry x="230" width="460" height="30" as="geometry">
            <mxRectangle width="460" height="30" as="alternateBounds" />
          </mxGeometry>
        </mxCell>
        <mxCell id="S_Y1Q7DFmcPcI0DwbEz_-47" value="Security Controls" style="shape=table;startSize=30;container=1;collapsible=0;childLayout=tableLayout;fillColor=#d5e8d4;strokeColor=#82b366;fontStyle=1;swimlaneFillColor=#FFFFFF;fontColor=#000000;whiteSpace=wrap;html=1;" vertex="1" parent="1">
          <mxGeometry x="3377" y="578" width="690" height="119.99999999999955" as="geometry" />
        </mxCell>
        <mxCell id="S_Y1Q7DFmcPcI0DwbEz_-48" value="" style="shape=tableRow;horizontal=0;startSize=0;swimlaneHead=0;swimlaneBody=0;strokeColor=inherit;top=0;left=0;bottom=0;right=0;collapsible=0;dropTarget=0;fillColor=inherit;points=[[0,0.5],[1,0.5]];portConstraint=eastwest;fontSize=16;fontColor=#000000;" vertex="1" parent="S_Y1Q7DFmcPcI0DwbEz_-47">
          <mxGeometry y="30" width="690" height="30" as="geometry" />
        </mxCell>
        <mxCell id="S_Y1Q7DFmcPcI0DwbEz_-49" value="ID" style="html=1;whiteSpace=wrap;connectable=0;strokeColor=inherit;overflow=hidden;fillColor=none;pointerEvents=1;fontColor=#000000;fontStyle=1" vertex="1" parent="S_Y1Q7DFmcPcI0DwbEz_-48">
          <mxGeometry width="230" height="30" as="geometry">
            <mxRectangle width="230" height="30" as="alternateBounds" />
          </mxGeometry>
        </mxCell>
        <mxCell id="S_Y1Q7DFmcPcI0DwbEz_-50" value="Description" style="html=1;whiteSpace=wrap;connectable=0;strokeColor=inherit;overflow=hidden;fillColor=none;pointerEvents=1;fontColor=#000000;fontStyle=1" vertex="1" parent="S_Y1Q7DFmcPcI0DwbEz_-48">
          <mxGeometry x="230" width="460" height="30" as="geometry">
            <mxRectangle width="460" height="30" as="alternateBounds" />
          </mxGeometry>
        </mxCell>
        <mxCell id="S_Y1Q7DFmcPcI0DwbEz_-51" value="" style="shape=tableRow;horizontal=0;startSize=0;swimlaneHead=0;swimlaneBody=0;strokeColor=inherit;top=0;left=0;bottom=0;right=0;collapsible=0;dropTarget=0;fillColor=none;points=[[0,0.5],[1,0.5]];portConstraint=eastwest;fontSize=16;fontColor=#000000;" vertex="1" parent="S_Y1Q7DFmcPcI0DwbEz_-47">
          <mxGeometry y="60" width="690" height="30" as="geometry" />
        </mxCell>
        <mxCell id="S_Y1Q7DFmcPcI0DwbEz_-52" value="C02" style="html=1;whiteSpace=wrap;connectable=0;strokeColor=inherit;overflow=hidden;fillColor=none;pointerEvents=1;fontColor=#000000;fontStyle=1" vertex="1" parent="S_Y1Q7DFmcPcI0DwbEz_-51">
          <mxGeometry width="230" height="30" as="geometry">
            <mxRectangle width="230" height="30" as="alternateBounds" />
          </mxGeometry>
        </mxCell>
        <mxCell id="S_Y1Q7DFmcPcI0DwbEz_-53" value="" style="html=1;whiteSpace=wrap;connectable=0;strokeColor=inherit;overflow=hidden;fillColor=none;pointerEvents=1;fontColor=#000000;fontStyle=1" vertex="1" parent="S_Y1Q7DFmcPcI0DwbEz_-51">
          <mxGeometry x="230" width="460" height="30" as="geometry">
            <mxRectangle width="460" height="30" as="alternateBounds" />
          </mxGeometry>
        </mxCell>
        <mxCell id="S_Y1Q7DFmcPcI0DwbEz_-54" style="shape=tableRow;horizontal=0;startSize=0;swimlaneHead=0;swimlaneBody=0;strokeColor=inherit;top=0;left=0;bottom=0;right=0;collapsible=0;dropTarget=0;fillColor=none;points=[[0,0.5],[1,0.5]];portConstraint=eastwest;fontSize=16;fontColor=#000000;" vertex="1" parent="S_Y1Q7DFmcPcI0DwbEz_-47">
          <mxGeometry y="90" width="690" height="30" as="geometry" />
        </mxCell>
        <mxCell id="S_Y1Q7DFmcPcI0DwbEz_-55" value="Threat" style="html=1;whiteSpace=wrap;connectable=0;strokeColor=inherit;overflow=hidden;fillColor=none;pointerEvents=1;fontColor=#000000;fontStyle=1" vertex="1" parent="S_Y1Q7DFmcPcI0DwbEz_-54">
          <mxGeometry width="230" height="30" as="geometry">
            <mxRectangle width="230" height="30" as="alternateBounds" />
          </mxGeometry>
        </mxCell>
        <mxCell id="S_Y1Q7DFmcPcI0DwbEz_-56" value="" style="html=1;whiteSpace=wrap;connectable=0;strokeColor=inherit;overflow=hidden;fillColor=none;pointerEvents=1;fontColor=#000000;fontStyle=1" vertex="1" parent="S_Y1Q7DFmcPcI0DwbEz_-54">
          <mxGeometry x="230" width="460" height="30" as="geometry">
            <mxRectangle width="460" height="30" as="alternateBounds" />
          </mxGeometry>
        </mxCell>
        <mxCell id="S_Y1Q7DFmcPcI0DwbEz_-57" value="" style="strokeColor=#dddddd;shadow=1;strokeWidth=1;rounded=1;absoluteArcSize=1;arcSize=2;" vertex="1" parent="1">
          <mxGeometry x="840" y="1000" width="140" height="60" as="geometry" />
        </mxCell>
        <mxCell id="S_Y1Q7DFmcPcI0DwbEz_-58" value="Products DB" style="editableCssRules=.*;html=1;fontColor=#999999;shape=image;verticalLabelPosition=middle;verticalAlign=middle;labelPosition=right;align=left;spacingLeft=20;part=1;points=[];imageAspect=0;image=data:image/svg+xml,PHN2ZyB4bWxucz0iaHR0cDovL3d3dy53My5vcmcvMjAwMC9zdmciIHhtbG5zOnY9Imh0dHBzOi8vdmVjdGEuaW8vbmFubyIgd2lkdGg9IjE0LjY1OTk5OTg0NzQxMjExIiBoZWlnaHQ9IjIwIiB2aWV3Qm94PSIwIDAgMTQuNjU5OTk5ODQ3NDEyMTEgMjAiPiYjeGE7CTxzdHlsZSB0eXBlPSJ0ZXh0L2NzcyI+JiN4YTsJLnN0MHtmaWxsOiM0Mjg1ZjQ7fSYjeGE7CS5zdDF7ZmlsbDojNjY5ZGY2O30mI3hhOwkuc3Qye2ZpbGw6I2FlY2JmYTt9JiN4YTsJPC9zdHlsZT4mI3hhOwk8c3R5bGU+JiN4YTsJCS5Ee2ZpbGwtcnVsZTpldmVub2RkfSYjeGE7CTwvc3R5bGU+JiN4YTsJPHBhdGggZD0iTTcuMzMgMTUuMzV2LTMuMDFMMCA4LjQ0djMuMDF6bTAgNC42NXYtMy4wMUwwIDEzLjA5djMuMDF6IiBjbGFzcz0ic3QyIEQiLz4mI3hhOwk8cGF0aCBkPSJNMTQuNjYgOC40NGwtNy4zMyAzLjl2My4wMWw3LjMzLTMuOXptMCA0LjY1bC03LjMzIDMuOVYyMGw3LjMzLTMuOXoiIGNsYXNzPSJzdDEgRCIvPiYjeGE7CTxwYXRoIGQ9Ik03LjMzIDB2My4wMWw3LjMzIDMuOVYzLjl6IiBjbGFzcz0ic3QwIEQiLz4mI3hhOwk8cGF0aCBkPSJNMCA2LjkxbDcuMzMtMy45VjBMMCAzLjl6IiBjbGFzcz0iRCBzdDEiLz4mI3hhOwk8cGF0aCBkPSJNNy4zMyAxMC43OVY3Ljc3TDAgMy44N3YzLjAyeiIgY2xhc3M9IkQgc3QyIi8+JiN4YTsJPHBhdGggZD0iTTE0LjY2IDMuODdsLTcuMzMgMy45djMuMDJsNy4zMy0zLjl6IiBjbGFzcz0iRCBzdDEiLz4mI3hhOzwvc3ZnPg==;" vertex="1" parent="S_Y1Q7DFmcPcI0DwbEz_-57">
          <mxGeometry width="22" height="30" relative="1" as="geometry">
            <mxPoint x="19" y="15" as="offset" />
          </mxGeometry>
        </mxCell>
        <mxCell id="S_Y1Q7DFmcPcI0DwbEz_-59" value="" style="strokeColor=#dddddd;shadow=1;strokeWidth=1;rounded=1;absoluteArcSize=1;arcSize=2;" vertex="1" parent="1">
          <mxGeometry x="1004" y="1000" width="140" height="60" as="geometry" />
        </mxCell>
        <mxCell id="S_Y1Q7DFmcPcI0DwbEz_-60" value="Redis" style="editableCssRules=.*;html=1;fontColor=#999999;shape=image;verticalLabelPosition=middle;verticalAlign=middle;labelPosition=right;align=left;spacingLeft=20;part=1;points=[];imageAspect=0;image=data:image/svg+xml,PHN2ZyB4bWxucz0iaHR0cDovL3d3dy53My5vcmcvMjAwMC9zdmciIHhtbG5zOnY9Imh0dHBzOi8vdmVjdGEuaW8vbmFubyIgd2lkdGg9IjE0LjY1OTk5OTg0NzQxMjExIiBoZWlnaHQ9IjIwIiB2aWV3Qm94PSIwIDAgMTQuNjU5OTk5ODQ3NDEyMTEgMjAiPiYjeGE7CTxzdHlsZSB0eXBlPSJ0ZXh0L2NzcyI+JiN4YTsJLnN0MHtmaWxsOiM0Mjg1ZjQ7fSYjeGE7CS5zdDF7ZmlsbDojNjY5ZGY2O30mI3hhOwkuc3Qye2ZpbGw6I2FlY2JmYTt9JiN4YTsJPC9zdHlsZT4mI3hhOwk8c3R5bGU+JiN4YTsJCS5Ee2ZpbGwtcnVsZTpldmVub2RkfSYjeGE7CTwvc3R5bGU+JiN4YTsJPHBhdGggZD0iTTcuMzMgMTUuMzV2LTMuMDFMMCA4LjQ0djMuMDF6bTAgNC42NXYtMy4wMUwwIDEzLjA5djMuMDF6IiBjbGFzcz0ic3QyIEQiLz4mI3hhOwk8cGF0aCBkPSJNMTQuNjYgOC40NGwtNy4zMyAzLjl2My4wMWw3LjMzLTMuOXptMCA0LjY1bC03LjMzIDMuOVYyMGw3LjMzLTMuOXoiIGNsYXNzPSJzdDEgRCIvPiYjeGE7CTxwYXRoIGQ9Ik03LjMzIDB2My4wMWw3LjMzIDMuOVYzLjl6IiBjbGFzcz0ic3QwIEQiLz4mI3hhOwk8cGF0aCBkPSJNMCA2LjkxbDcuMzMtMy45VjBMMCAzLjl6IiBjbGFzcz0iRCBzdDEiLz4mI3hhOwk8cGF0aCBkPSJNNy4zMyAxMC43OVY3Ljc3TDAgMy44N3YzLjAyeiIgY2xhc3M9IkQgc3QyIi8+JiN4YTsJPHBhdGggZD0iTTE0LjY2IDMuODdsLTcuMzMgMy45djMuMDJsNy4zMy0zLjl6IiBjbGFzcz0iRCBzdDEiLz4mI3hhOzwvc3ZnPg==;" vertex="1" parent="S_Y1Q7DFmcPcI0DwbEz_-59">
          <mxGeometry width="22" height="30" relative="1" as="geometry">
            <mxPoint x="19" y="15" as="offset" />
          </mxGeometry>
        </mxCell>
        <mxCell id="S_Y1Q7DFmcPcI0DwbEz_-61" value="" style="strokeColor=#dddddd;shadow=1;strokeWidth=1;rounded=1;absoluteArcSize=1;arcSize=2;" vertex="1" parent="1">
          <mxGeometry x="1180" y="1000" width="140" height="60" as="geometry" />
        </mxCell>
        <mxCell id="S_Y1Q7DFmcPcI0DwbEz_-62" value="Order DB" style="editableCssRules=.*;html=1;fontColor=#999999;shape=image;verticalLabelPosition=middle;verticalAlign=middle;labelPosition=right;align=left;spacingLeft=20;part=1;points=[];imageAspect=0;image=data:image/svg+xml,PHN2ZyB4bWxucz0iaHR0cDovL3d3dy53My5vcmcvMjAwMC9zdmciIHhtbG5zOnY9Imh0dHBzOi8vdmVjdGEuaW8vbmFubyIgd2lkdGg9IjE0LjY1OTk5OTg0NzQxMjExIiBoZWlnaHQ9IjIwIiB2aWV3Qm94PSIwIDAgMTQuNjU5OTk5ODQ3NDEyMTEgMjAiPiYjeGE7CTxzdHlsZSB0eXBlPSJ0ZXh0L2NzcyI+JiN4YTsJLnN0MHtmaWxsOiM0Mjg1ZjQ7fSYjeGE7CS5zdDF7ZmlsbDojNjY5ZGY2O30mI3hhOwkuc3Qye2ZpbGw6I2FlY2JmYTt9JiN4YTsJPC9zdHlsZT4mI3hhOwk8c3R5bGU+JiN4YTsJCS5Ee2ZpbGwtcnVsZTpldmVub2RkfSYjeGE7CTwvc3R5bGU+JiN4YTsJPHBhdGggZD0iTTcuMzMgMTUuMzV2LTMuMDFMMCA4LjQ0djMuMDF6bTAgNC42NXYtMy4wMUwwIDEzLjA5djMuMDF6IiBjbGFzcz0ic3QyIEQiLz4mI3hhOwk8cGF0aCBkPSJNMTQuNjYgOC40NGwtNy4zMyAzLjl2My4wMWw3LjMzLTMuOXptMCA0LjY1bC03LjMzIDMuOVYyMGw3LjMzLTMuOXoiIGNsYXNzPSJzdDEgRCIvPiYjeGE7CTxwYXRoIGQ9Ik03LjMzIDB2My4wMWw3LjMzIDMuOVYzLjl6IiBjbGFzcz0ic3QwIEQiLz4mI3hhOwk8cGF0aCBkPSJNMCA2LjkxbDcuMzMtMy45VjBMMCAzLjl6IiBjbGFzcz0iRCBzdDEiLz4mI3hhOwk8cGF0aCBkPSJNNy4zMyAxMC43OVY3Ljc3TDAgMy44N3YzLjAyeiIgY2xhc3M9IkQgc3QyIi8+JiN4YTsJPHBhdGggZD0iTTE0LjY2IDMuODdsLTcuMzMgMy45djMuMDJsNy4zMy0zLjl6IiBjbGFzcz0iRCBzdDEiLz4mI3hhOzwvc3ZnPg==;" vertex="1" parent="S_Y1Q7DFmcPcI0DwbEz_-61">
          <mxGeometry width="22" height="30" relative="1" as="geometry">
            <mxPoint x="19" y="15" as="offset" />
          </mxGeometry>
        </mxCell>
        <mxCell id="S_Y1Q7DFmcPcI0DwbEz_-63" style="edgeStyle=orthogonalEdgeStyle;rounded=0;orthogonalLoop=1;jettySize=auto;html=1;startArrow=classic;startFill=1;" edge="1" parent="1" source="S_Y1Q7DFmcPcI0DwbEz_-64" target="S_Y1Q7DFmcPcI0DwbEz_-106">
          <mxGeometry relative="1" as="geometry">
            <Array as="points">
              <mxPoint x="1360" y="680" />
              <mxPoint x="1360" y="680" />
            </Array>
          </mxGeometry>
        </mxCell>
        <mxCell id="S_Y1Q7DFmcPcI0DwbEz_-64" value="" style="strokeColor=#dddddd;shadow=1;strokeWidth=1;rounded=1;absoluteArcSize=1;arcSize=2;" vertex="1" parent="1">
          <mxGeometry x="1300" y="600" width="120" height="60" as="geometry" />
        </mxCell>
        <mxCell id="S_Y1Q7DFmcPcI0DwbEz_-65" value="&lt;font color=&quot;#000000&quot;&gt;Consumer&lt;/font&gt;&lt;div&gt;&lt;font color=&quot;#000000&quot;&gt;&amp;nbsp;order&lt;/font&gt;&lt;br&gt;Pub/Sub&lt;/div&gt;" style="editableCssRules=.*;html=1;fontColor=#999999;shape=image;verticalLabelPosition=middle;verticalAlign=middle;labelPosition=right;align=left;spacingLeft=20;part=1;points=[];imageAspect=0;image=data:image/svg+xml,PHN2ZyB4bWxucz0iaHR0cDovL3d3dy53My5vcmcvMjAwMC9zdmciIHhtbG5zOnY9Imh0dHBzOi8vdmVjdGEuaW8vbmFubyIgd2lkdGg9IjE4LjMxOTk5OTY5NDgyNDIyIiBoZWlnaHQ9IjIwLjAwMDAwMTkwNzM0ODYzMyIgdmlld0JveD0iMCAwIDE4LjMxOTk5OTY5NDgyNDIyIDIwLjAwMDAwMTkwNzM0ODYzMyI+JiN4YTsJPHN0eWxlIHR5cGU9InRleHQvY3NzIj4mI3hhOwkuc3Qwe2ZpbGw6IzY2OWRmNjt9JiN4YTsJLnN0MXtmaWxsOiM0Mjg1ZjQ7fSYjeGE7CS5zdDJ7ZmlsbDojYWVjYmZhO30mI3hhOwk8L3N0eWxlPiYjeGE7CTxkZWZzPiYjeGE7CQk8ZmlsdGVyIGlkPSJBIiB4PSI0LjY0IiB5PSI0LjE5IiB3aWR0aD0iMTQuNzMiIGhlaWdodD0iMTIuNzYiIGZpbHRlclVuaXRzPSJ1c2VyU3BhY2VPblVzZSIgY29sb3ItaW50ZXJwb2xhdGlvbi1maWx0ZXJzPSJzUkdCIj4mI3hhOwkJCTxmZUZsb29kIGZsb29kLWNvbG9yPSIjZmZmIi8+JiN4YTsJCQk8ZmVCbGVuZCBpbj0iU291cmNlR3JhcGhpYyIvPiYjeGE7CQk8L2ZpbHRlcj4mI3hhOwkJPG1hc2sgaWQ9IkIiIHg9IjQuNjQiIHk9IjQuMTkiIHdpZHRoPSIxNC43MyIgaGVpZ2h0PSIxMi43NiIgbWFza1VuaXRzPSJ1c2VyU3BhY2VPblVzZSI+JiN4YTsJCQk8Y2lyY2xlIGN4PSIxMiIgY3k9IjEyLjIzIiByPSIzLjU4IiBmaWx0ZXI9InVybCgjQSkiLz4mI3hhOwkJPC9tYXNrPiYjeGE7CTwvZGVmcz4mI3hhOwk8ZyBjbGFzcz0ic3QwIj4mI3hhOwkJPGNpcmNsZSBjeD0iMTYuMTMiIGN5PSI2LjIxIiByPSIxLjcyIi8+JiN4YTsJCTxjaXJjbGUgY3g9IjIuMTkiIGN5PSI2LjIxIiByPSIxLjcyIi8+JiN4YTsJCTxjaXJjbGUgY3g9IjkuMTYiIGN5PSIxOC4yOCIgcj0iMS43MiIvPiYjeGE7CTwvZz4mI3hhOwk8ZyBtYXNrPSJ1cmwoI0IpIiB0cmFuc2Zvcm09InRyYW5zbGF0ZSgtMi44NCAtMikiPiYjeGE7CQk8cGF0aCB0cmFuc2Zvcm09Im1hdHJpeCguNSAtLjg3IC44NyAuNSAtNC41OSAyMC41MykiIGQ9Ik0xNC42OSAxMC4yMmgxLjU5djguMDRoLTEuNTl6IiBjbGFzcz0ic3QxIi8+JiN4YTsJCTxwYXRoIHRyYW5zZm9ybT0icm90YXRlKDMzMCA4LjUyMyAxNC4yNDQpIiBkPSJNNC40OSAxMy40NWg4LjA0djEuNTlINC40OXoiIGNsYXNzPSJzdDEiLz4mI3hhOwkJPHBhdGggZD0iTTExLjIgNC4xOWgxLjU5djguMDRIMTEuMnoiIGNsYXNzPSJzdDEiLz4mI3hhOwk8L2c+JiN4YTsJPGcgY2xhc3M9InN0MiI+JiN4YTsJCTxjaXJjbGUgY3g9IjkuMTYiIGN5PSIxMC4yMyIgcj0iMi43OCIvPiYjeGE7CQk8Y2lyY2xlIGN4PSIyLjE5IiBjeT0iMTQuMjUiIHI9IjIuMTkiLz4mI3hhOwkJPGNpcmNsZSBjeD0iMTYuMTMiIGN5PSIxNC4yNSIgcj0iMi4xOSIvPiYjeGE7CQk8Y2lyY2xlIGN4PSI5LjE2IiBjeT0iMi4xOSIgcj0iMi4xOSIvPiYjeGE7CTwvZz4mI3hhOzwvc3ZnPg==;" vertex="1" parent="S_Y1Q7DFmcPcI0DwbEz_-64">
          <mxGeometry width="20" height="20" relative="1" as="geometry">
            <mxPoint x="16" y="15" as="offset" />
          </mxGeometry>
        </mxCell>
        <mxCell id="S_Y1Q7DFmcPcI0DwbEz_-66" style="edgeStyle=orthogonalEdgeStyle;rounded=0;orthogonalLoop=1;jettySize=auto;html=1;" edge="1" parent="1" source="S_Y1Q7DFmcPcI0DwbEz_-67" target="S_Y1Q7DFmcPcI0DwbEz_-92">
          <mxGeometry relative="1" as="geometry" />
        </mxCell>
        <mxCell id="S_Y1Q7DFmcPcI0DwbEz_-67" value="Cliente" style="shape=umlActor;verticalLabelPosition=bottom;verticalAlign=top;html=1;outlineConnect=0;" vertex="1" parent="1">
          <mxGeometry x="650" y="750" width="30" height="60" as="geometry" />
        </mxCell>
        <mxCell id="S_Y1Q7DFmcPcI0DwbEz_-68" style="edgeStyle=orthogonalEdgeStyle;rounded=0;orthogonalLoop=1;jettySize=auto;html=1;entryX=0;entryY=0.5;entryDx=0;entryDy=0;" edge="1" parent="1" source="S_Y1Q7DFmcPcI0DwbEz_-69" target="S_Y1Q7DFmcPcI0DwbEz_-99">
          <mxGeometry relative="1" as="geometry" />
        </mxCell>
        <mxCell id="S_Y1Q7DFmcPcI0DwbEz_-69" value="Adm User" style="shape=umlActor;verticalLabelPosition=bottom;verticalAlign=top;html=1;outlineConnect=0;" vertex="1" parent="1">
          <mxGeometry x="650" y="518" width="30" height="60" as="geometry" />
        </mxCell>
        <mxCell id="S_Y1Q7DFmcPcI0DwbEz_-70" value="" style="strokeColor=#dddddd;shadow=1;strokeWidth=1;rounded=1;absoluteArcSize=1;arcSize=2;" vertex="1" parent="1">
          <mxGeometry x="890" y="370" width="110" height="60" as="geometry" />
        </mxCell>
        <mxCell id="S_Y1Q7DFmcPcI0DwbEz_-71" value="IAM" style="editableCssRules=.*;html=1;fontColor=#999999;shape=image;verticalLabelPosition=middle;verticalAlign=middle;labelPosition=right;align=left;spacingLeft=20;part=1;points=[];imageAspect=0;image=data:image/svg+xml,PHN2ZyB4bWxucz0iaHR0cDovL3d3dy53My5vcmcvMjAwMC9zdmciIHhtbG5zOnY9Imh0dHBzOi8vdmVjdGEuaW8vbmFubyIgd2lkdGg9IjE2LjQyMDAwMDA3NjI5Mzk0NSIgaGVpZ2h0PSIyMC4wNDk5OTkyMzcwNjA1NDciIGZpbGwtcnVsZT0iZXZlbm9kZCIgdmlld0JveD0iMCAwIDE2LjQyMDAwMDA3NjI5Mzk0NSAyMC4wNDk5OTkyMzcwNjA1NDciPiYjeGE7CTxzdHlsZSB0eXBlPSJ0ZXh0L2NzcyI+JiN4YTsJLnN0MHtmaWxsOiM0Mjg1ZjQ7fSYjeGE7CS5zdDF7ZmlsbDojNjY5ZGY2O30mI3hhOwk8L3N0eWxlPiYjeGE7CTxwYXRoIGNsYXNzPSJzdDEiIGQ9Ik04LjIxIDBMMCAzLjQydjUuNjNjMCA1LjA2IDMuNSA5LjggOC4yMSAxMSA0LjcxLTEuMTUgOC4yMS01Ljg5IDguMjEtMTAuOTVWMy40MnptMCAzLjc5YTIuNjMgMi42MyAwIDAgMSAxLjAwNSA1LjA2QTIuNjMgMi42MyAwIDAgMSA2LjM1IDQuNTZhMi42MyAyLjYzIDAgMCAxIDEuODYtLjc3em00LjExIDExLjE1YTguNjQgOC42NCAwIDAgMS00LjExIDIuOTMgOC42NCA4LjY0IDAgMCAxLTQuMTEtMi45M3YtMi4yNWMwLTEuNjcgMi43NC0yLjUyIDQuMTEtMi41MnM0LjExLjg1IDQuMTEgMi41MnoiLz4mI3hhOwk8cGF0aCBjbGFzcz0ic3QwIiBkPSJNOC4yMSAwdjMuNzlhMi42MyAyLjYzIDAgMSAxIDAgNS4yNnYxLjEyYzEuMzcgMCA0LjExLjg1IDQuMTEgMi41MnYyLjI1YTguNjQgOC42NCAwIDAgMS00LjExIDIuOTNWMjBjNC43MS0xLjE1IDguMjEtNS44OSA4LjIxLTEwLjk1VjMuNDJ6Ii8+JiN4YTs8L3N2Zz4=;" vertex="1" parent="S_Y1Q7DFmcPcI0DwbEz_-70">
          <mxGeometry width="24" height="30" relative="1" as="geometry">
            <mxPoint x="18" y="15" as="offset" />
          </mxGeometry>
        </mxCell>
        <mxCell id="S_Y1Q7DFmcPcI0DwbEz_-72" style="edgeStyle=orthogonalEdgeStyle;rounded=0;orthogonalLoop=1;jettySize=auto;html=1;entryX=1;entryY=0.5;entryDx=0;entryDy=0;" edge="1" parent="1" source="S_Y1Q7DFmcPcI0DwbEz_-73" target="S_Y1Q7DFmcPcI0DwbEz_-70">
          <mxGeometry relative="1" as="geometry" />
        </mxCell>
        <mxCell id="S_Y1Q7DFmcPcI0DwbEz_-73" value="" style="strokeColor=#dddddd;shadow=1;strokeWidth=1;rounded=1;absoluteArcSize=1;arcSize=2;" vertex="1" parent="1">
          <mxGeometry x="1160" y="370" width="210" height="60" as="geometry" />
        </mxCell>
        <mxCell id="S_Y1Q7DFmcPcI0DwbEz_-74" value="&lt;br&gt;Key Management Service" style="editableCssRules=.*;html=1;fontColor=#999999;shape=image;verticalLabelPosition=middle;verticalAlign=middle;labelPosition=right;align=left;spacingLeft=20;part=1;points=[];imageAspect=0;image=data:image/svg+xml,PHN2ZyB4bWxucz0iaHR0cDovL3d3dy53My5vcmcvMjAwMC9zdmciIHhtbG5zOnY9Imh0dHBzOi8vdmVjdGEuaW8vbmFubyIgd2lkdGg9IjMxMC43NzU2MDY1NDM4NjAyNSIgaGVpZ2h0PSIzNzcuOTUzMDI4ODM1NTI1NDYiIHZpZXdCb3g9Ii0wLjE0MDAwMDAwMDU5NjA0NjQ1IC0wLjQ2NzAwMDAwNzYyOTM5NDUzIDgyLjIyNTk5NzkyNDgwNDY5IDEwMC4wMDAwMDc2MjkzOTQ1MyI+JiN4YTs8c3R5bGUgdHlwZT0idGV4dC9jc3MiPiYjeGE7CS5zdDB7ZmlsbDojNDI4NWY0O30mI3hhOwkuc3Qxe2ZpbGw6IzY2OWRmNjt9JiN4YTsJLnN0MntmaWxsOiNmZmY7fSYjeGE7PC9zdHlsZT4mI3hhOwk8cGF0aCBjbGFzcz0ic3QwIiBkPSJNNDAuOTczLS40NjdsNDEuMTEzIDE3LjQ5M3YyOS42NTRjMCAyNy40MTgtMjQuNjA4IDUwLjgzNi00MS4xMTMgNTIuODUzeiIvPiYjeGE7CTxwYXRoIGNsYXNzPSJzdDEiIGQ9Ik00MC45NzMtLjQ2N0wtLjE0IDE3LjAyNXYyOS42NTRjMCAyNy40MTggMjQuNjA4IDUwLjgzNiA0MS4xMTMgNTIuODUzeiIvPiYjeGE7CTxwYXRoIGNsYXNzPSJzdDIiIGQ9Ik00MS4yNTMgMTYuNjA1Yy05LjU4NCAwLTE3LjQ0NSA3Ljg2Mi0xNy40NDUgMTcuNDQ1IDAgOC4wODQgNS41OTQgMTQuOTQyIDEzLjA5NiAxNi44OTF2OS40ODhoLTkuODY5djguNzAxaDkuODY5djUuMzc3aC02LjMxNXY4LjcwMWg2LjMxNXYyLjE5N2g4LjcwMVY1MC45NDFDNTMuMTA2IDQ4Ljk5MiA1OC43IDQyLjEzNCA1OC43IDM0LjA1YzAtOS41ODQtNy44NjMtMTcuNDQ1LTE3LjQ0Ny0xNy40NDV6bTAgOC42OTlBOC42OCA4LjY4IDAgMCAxIDUwIDM0LjA1YTguNjggOC42OCAwIDAgMS04Ljc0OCA4Ljc0NiA4LjY4IDguNjggMCAwIDEtOC43NDYtOC43NDYgOC42OCA4LjY4IDAgMCAxIDguNzQ2LTguNzQ2eiIvPiYjeGE7PC9zdmc+;" vertex="1" parent="S_Y1Q7DFmcPcI0DwbEz_-73">
          <mxGeometry width="24" height="30" relative="1" as="geometry">
            <mxPoint x="18" y="15" as="offset" />
          </mxGeometry>
        </mxCell>
        <mxCell id="S_Y1Q7DFmcPcI0DwbEz_-75" style="edgeStyle=orthogonalEdgeStyle;rounded=0;orthogonalLoop=1;jettySize=auto;html=1;" edge="1" parent="1" source="S_Y1Q7DFmcPcI0DwbEz_-76" target="S_Y1Q7DFmcPcI0DwbEz_-1">
          <mxGeometry relative="1" as="geometry">
            <Array as="points">
              <mxPoint x="1172" y="930" />
              <mxPoint x="1633" y="930" />
            </Array>
          </mxGeometry>
        </mxCell>
        <mxCell id="S_Y1Q7DFmcPcI0DwbEz_-76" value="" style="sketch=0;points=[[0,0,0],[0.25,0,0],[0.5,0,0],[0.75,0,0],[1,0,0],[1,0.25,0],[1,0.5,0],[1,0.75,0],[1,1,0],[0.75,1,0],[0.5,1,0],[0.25,1,0],[0,1,0],[0,0.75,0],[0,0.5,0],[0,0.25,0]];rounded=1;absoluteArcSize=1;arcSize=2;html=1;strokeColor=none;gradientColor=none;shadow=0;dashed=0;fontSize=12;fontColor=#9E9E9E;align=left;verticalAlign=top;spacing=10;spacingTop=-4;whiteSpace=wrap;fillColor=#F1F8E9;" vertex="1" parent="1">
          <mxGeometry x="1112" y="510" width="120" height="400" as="geometry" />
        </mxCell>
        <mxCell id="S_Y1Q7DFmcPcI0DwbEz_-77" style="edgeStyle=orthogonalEdgeStyle;rounded=0;orthogonalLoop=1;jettySize=auto;html=1;entryX=0.5;entryY=1;entryDx=0;entryDy=0;startArrow=classic;startFill=1;" edge="1" parent="1" source="S_Y1Q7DFmcPcI0DwbEz_-78" target="S_Y1Q7DFmcPcI0DwbEz_-81">
          <mxGeometry relative="1" as="geometry" />
        </mxCell>
        <mxCell id="S_Y1Q7DFmcPcI0DwbEz_-78" value="Service-2FA" style="ellipse;whiteSpace=wrap;html=1;aspect=fixed;" vertex="1" parent="1">
          <mxGeometry x="1137" y="820" width="70" height="70" as="geometry" />
        </mxCell>
        <mxCell id="S_Y1Q7DFmcPcI0DwbEz_-79" style="edgeStyle=orthogonalEdgeStyle;rounded=0;orthogonalLoop=1;jettySize=auto;html=1;startArrow=classic;startFill=1;" edge="1" parent="1" source="S_Y1Q7DFmcPcI0DwbEz_-81" target="S_Y1Q7DFmcPcI0DwbEz_-84">
          <mxGeometry relative="1" as="geometry" />
        </mxCell>
        <mxCell id="S_Y1Q7DFmcPcI0DwbEz_-80" style="edgeStyle=orthogonalEdgeStyle;rounded=0;orthogonalLoop=1;jettySize=auto;html=1;entryX=0.5;entryY=0;entryDx=0;entryDy=0;" edge="1" parent="1" source="S_Y1Q7DFmcPcI0DwbEz_-81" target="S_Y1Q7DFmcPcI0DwbEz_-59">
          <mxGeometry relative="1" as="geometry">
            <Array as="points">
              <mxPoint x="1074" y="760" />
            </Array>
          </mxGeometry>
        </mxCell>
        <mxCell id="S_Y1Q7DFmcPcI0DwbEz_-81" value="Service-login" style="ellipse;whiteSpace=wrap;html=1;aspect=fixed;" vertex="1" parent="1">
          <mxGeometry x="1137" y="725" width="70" height="70" as="geometry" />
        </mxCell>
        <mxCell id="S_Y1Q7DFmcPcI0DwbEz_-82" style="edgeStyle=orthogonalEdgeStyle;rounded=0;orthogonalLoop=1;jettySize=auto;html=1;entryX=0.5;entryY=1;entryDx=0;entryDy=0;startArrow=classic;startFill=1;" edge="1" parent="1" source="S_Y1Q7DFmcPcI0DwbEz_-84" target="S_Y1Q7DFmcPcI0DwbEz_-85">
          <mxGeometry relative="1" as="geometry" />
        </mxCell>
        <mxCell id="S_Y1Q7DFmcPcI0DwbEz_-83" style="edgeStyle=orthogonalEdgeStyle;rounded=0;orthogonalLoop=1;jettySize=auto;html=1;" edge="1" parent="1" source="S_Y1Q7DFmcPcI0DwbEz_-84" target="S_Y1Q7DFmcPcI0DwbEz_-61">
          <mxGeometry relative="1" as="geometry">
            <Array as="points">
              <mxPoint x="1250" y="665" />
            </Array>
          </mxGeometry>
        </mxCell>
        <mxCell id="S_Y1Q7DFmcPcI0DwbEz_-84" value="Order-APP" style="ellipse;whiteSpace=wrap;html=1;aspect=fixed;" vertex="1" parent="1">
          <mxGeometry x="1137" y="630" width="70" height="70" as="geometry" />
        </mxCell>
        <mxCell id="S_Y1Q7DFmcPcI0DwbEz_-85" value="Order-ADM&lt;div&gt;Services&lt;/div&gt;" style="ellipse;whiteSpace=wrap;html=1;aspect=fixed;" vertex="1" parent="1">
          <mxGeometry x="1137" y="530" width="70" height="70" as="geometry" />
        </mxCell>
        <mxCell id="S_Y1Q7DFmcPcI0DwbEz_-86" style="edgeStyle=orthogonalEdgeStyle;rounded=0;orthogonalLoop=1;jettySize=auto;html=1;startArrow=classic;startFill=1;" edge="1" parent="1" source="S_Y1Q7DFmcPcI0DwbEz_-87">
          <mxGeometry relative="1" as="geometry">
            <mxPoint x="1110" y="720" as="targetPoint" />
          </mxGeometry>
        </mxCell>
        <mxCell id="S_Y1Q7DFmcPcI0DwbEz_-87" value="" style="sketch=0;points=[[0,0,0],[0.25,0,0],[0.5,0,0],[0.75,0,0],[1,0,0],[1,0.25,0],[1,0.5,0],[1,0.75,0],[1,1,0],[0.75,1,0],[0.5,1,0],[0.25,1,0],[0,1,0],[0,0.75,0],[0,0.5,0],[0,0.25,0]];rounded=1;absoluteArcSize=1;arcSize=2;html=1;strokeColor=none;gradientColor=none;shadow=0;dashed=0;fontSize=12;fontColor=#9E9E9E;align=left;verticalAlign=top;spacing=10;spacingTop=-4;whiteSpace=wrap;fillColor=#F1F8E9;" vertex="1" parent="1">
          <mxGeometry x="850" y="660" width="120" height="240" as="geometry" />
        </mxCell>
        <mxCell id="S_Y1Q7DFmcPcI0DwbEz_-88" style="edgeStyle=orthogonalEdgeStyle;rounded=0;orthogonalLoop=1;jettySize=auto;html=1;" edge="1" parent="1" source="S_Y1Q7DFmcPcI0DwbEz_-89" target="S_Y1Q7DFmcPcI0DwbEz_-57">
          <mxGeometry relative="1" as="geometry" />
        </mxCell>
        <mxCell id="S_Y1Q7DFmcPcI0DwbEz_-89" value="Products" style="ellipse;whiteSpace=wrap;html=1;aspect=fixed;" vertex="1" parent="1">
          <mxGeometry x="875" y="804" width="70" height="70" as="geometry" />
        </mxCell>
        <mxCell id="S_Y1Q7DFmcPcI0DwbEz_-90" style="edgeStyle=orthogonalEdgeStyle;rounded=0;orthogonalLoop=1;jettySize=auto;html=1;" edge="1" parent="1" target="S_Y1Q7DFmcPcI0DwbEz_-89">
          <mxGeometry relative="1" as="geometry">
            <mxPoint x="910" y="750" as="sourcePoint" />
          </mxGeometry>
        </mxCell>
        <mxCell id="S_Y1Q7DFmcPcI0DwbEz_-91" value="Service-UI" style="ellipse;whiteSpace=wrap;html=1;aspect=fixed;" vertex="1" parent="1">
          <mxGeometry x="875" y="680" width="70" height="70" as="geometry" />
        </mxCell>
        <mxCell id="S_Y1Q7DFmcPcI0DwbEz_-92" value="" style="strokeColor=#dddddd;shadow=1;strokeWidth=1;rounded=1;absoluteArcSize=1;arcSize=2;labelPosition=center;verticalLabelPosition=middle;align=center;verticalAlign=bottom;spacingLeft=0;fontColor=#999999;fontSize=12;whiteSpace=wrap;spacingBottom=2;html=1;" vertex="1" parent="1">
          <mxGeometry x="713" y="743.75" width="67" height="72.5" as="geometry" />
        </mxCell>
        <mxCell id="S_Y1Q7DFmcPcI0DwbEz_-93" value="" style="sketch=0;dashed=0;connectable=0;html=1;fillColor=#757575;strokeColor=none;shape=mxgraph.gcp2.desktop;part=1;" vertex="1" parent="S_Y1Q7DFmcPcI0DwbEz_-92">
          <mxGeometry x="0.5" width="50" height="45" relative="1" as="geometry">
            <mxPoint x="-25" y="12.5" as="offset" />
          </mxGeometry>
        </mxCell>
        <mxCell id="S_Y1Q7DFmcPcI0DwbEz_-94" value="" style="strokeColor=#dddddd;shadow=1;strokeWidth=1;rounded=1;absoluteArcSize=1;arcSize=2;labelPosition=center;verticalLabelPosition=middle;align=center;verticalAlign=bottom;spacingLeft=0;fontColor=#999999;fontSize=12;whiteSpace=wrap;spacingBottom=2;html=1;" vertex="1" parent="S_Y1Q7DFmcPcI0DwbEz_-92">
          <mxGeometry width="67" height="72.5" as="geometry" />
        </mxCell>
        <mxCell id="S_Y1Q7DFmcPcI0DwbEz_-95" value="" style="sketch=0;dashed=0;connectable=0;html=1;fillColor=#757575;strokeColor=none;shape=mxgraph.gcp2.desktop;part=1;" vertex="1" parent="S_Y1Q7DFmcPcI0DwbEz_-94">
          <mxGeometry x="0.5" width="50" height="45" relative="1" as="geometry">
            <mxPoint x="-25" y="12.5" as="offset" />
          </mxGeometry>
        </mxCell>
        <mxCell id="S_Y1Q7DFmcPcI0DwbEz_-96" style="edgeStyle=orthogonalEdgeStyle;rounded=0;orthogonalLoop=1;jettySize=auto;html=1;entryX=0;entryY=0.5;entryDx=0;entryDy=0;entryPerimeter=0;" edge="1" parent="1" source="S_Y1Q7DFmcPcI0DwbEz_-92" target="S_Y1Q7DFmcPcI0DwbEz_-87">
          <mxGeometry relative="1" as="geometry" />
        </mxCell>
        <mxCell id="S_Y1Q7DFmcPcI0DwbEz_-97" style="edgeStyle=orthogonalEdgeStyle;rounded=0;orthogonalLoop=1;jettySize=auto;html=1;entryX=0;entryY=0.5;entryDx=0;entryDy=0;" edge="1" parent="1" source="S_Y1Q7DFmcPcI0DwbEz_-99" target="S_Y1Q7DFmcPcI0DwbEz_-70">
          <mxGeometry relative="1" as="geometry" />
        </mxCell>
        <mxCell id="S_Y1Q7DFmcPcI0DwbEz_-98" style="edgeStyle=orthogonalEdgeStyle;rounded=0;orthogonalLoop=1;jettySize=auto;html=1;" edge="1" parent="1" source="S_Y1Q7DFmcPcI0DwbEz_-99">
          <mxGeometry relative="1" as="geometry">
            <mxPoint x="1110" y="548" as="targetPoint" />
          </mxGeometry>
        </mxCell>
        <mxCell id="S_Y1Q7DFmcPcI0DwbEz_-99" value="" style="strokeColor=#dddddd;shadow=1;strokeWidth=1;rounded=1;absoluteArcSize=1;arcSize=2;labelPosition=center;verticalLabelPosition=middle;align=center;verticalAlign=bottom;spacingLeft=0;fontColor=#999999;fontSize=12;whiteSpace=wrap;spacingBottom=2;html=1;" vertex="1" parent="1">
          <mxGeometry x="721.5" y="511.75" width="67" height="72.5" as="geometry" />
        </mxCell>
        <mxCell id="S_Y1Q7DFmcPcI0DwbEz_-100" value="" style="sketch=0;dashed=0;connectable=0;html=1;fillColor=#757575;strokeColor=none;shape=mxgraph.gcp2.desktop;part=1;" vertex="1" parent="S_Y1Q7DFmcPcI0DwbEz_-99">
          <mxGeometry x="0.5" width="50" height="45" relative="1" as="geometry">
            <mxPoint x="-25" y="12.5" as="offset" />
          </mxGeometry>
        </mxCell>
        <mxCell id="S_Y1Q7DFmcPcI0DwbEz_-101" value="ADM access" style="text;html=1;align=center;verticalAlign=middle;resizable=0;points=[];autosize=1;strokeColor=none;fillColor=none;" vertex="1" parent="1">
          <mxGeometry x="750" y="460" width="90" height="30" as="geometry" />
        </mxCell>
        <mxCell id="S_Y1Q7DFmcPcI0DwbEz_-102" value="ADM access" style="text;html=1;align=center;verticalAlign=middle;resizable=0;points=[];autosize=1;strokeColor=none;fillColor=none;" vertex="1" parent="1">
          <mxGeometry x="850" y="548" width="90" height="30" as="geometry" />
        </mxCell>
        <mxCell id="S_Y1Q7DFmcPcI0DwbEz_-103" value="RBAC" style="text;html=1;align=center;verticalAlign=middle;resizable=0;points=[];autosize=1;strokeColor=none;fillColor=none;" vertex="1" parent="1">
          <mxGeometry x="1060" y="370" width="60" height="30" as="geometry" />
        </mxCell>
        <mxCell id="S_Y1Q7DFmcPcI0DwbEz_-104" style="edgeStyle=orthogonalEdgeStyle;rounded=0;orthogonalLoop=1;jettySize=auto;html=1;startArrow=classic;startFill=1;" edge="1" parent="1" source="S_Y1Q7DFmcPcI0DwbEz_-106" target="S_Y1Q7DFmcPcI0DwbEz_-109">
          <mxGeometry relative="1" as="geometry" />
        </mxCell>
        <mxCell id="S_Y1Q7DFmcPcI0DwbEz_-105" style="edgeStyle=orthogonalEdgeStyle;rounded=0;orthogonalLoop=1;jettySize=auto;html=1;entryX=1;entryY=0.5;entryDx=0;entryDy=0;" edge="1" parent="1" source="S_Y1Q7DFmcPcI0DwbEz_-106" target="S_Y1Q7DFmcPcI0DwbEz_-61">
          <mxGeometry relative="1" as="geometry">
            <Array as="points">
              <mxPoint x="1350" y="1030" />
            </Array>
          </mxGeometry>
        </mxCell>
        <mxCell id="S_Y1Q7DFmcPcI0DwbEz_-106" value="Order Worker" style="ellipse;whiteSpace=wrap;html=1;aspect=fixed;" vertex="1" parent="1">
          <mxGeometry x="1325" y="690" width="70" height="70" as="geometry" />
        </mxCell>
        <mxCell id="S_Y1Q7DFmcPcI0DwbEz_-107" style="edgeStyle=orthogonalEdgeStyle;rounded=0;orthogonalLoop=1;jettySize=auto;html=1;entryX=0;entryY=0.5;entryDx=0;entryDy=0;entryPerimeter=0;" edge="1" parent="1" source="S_Y1Q7DFmcPcI0DwbEz_-84" target="S_Y1Q7DFmcPcI0DwbEz_-2">
          <mxGeometry relative="1" as="geometry">
            <Array as="points">
              <mxPoint x="1260" y="665" />
              <mxPoint x="1260" y="690" />
            </Array>
          </mxGeometry>
        </mxCell>
        <mxCell id="S_Y1Q7DFmcPcI0DwbEz_-108" style="edgeStyle=orthogonalEdgeStyle;rounded=0;orthogonalLoop=1;jettySize=auto;html=1;entryX=1.002;entryY=0.382;entryDx=0;entryDy=0;entryPerimeter=0;" edge="1" parent="1" source="S_Y1Q7DFmcPcI0DwbEz_-106" target="S_Y1Q7DFmcPcI0DwbEz_-73">
          <mxGeometry relative="1" as="geometry">
            <Array as="points">
              <mxPoint x="1450" y="725" />
              <mxPoint x="1450" y="393" />
            </Array>
          </mxGeometry>
        </mxCell>
        <mxCell id="S_Y1Q7DFmcPcI0DwbEz_-109" value="External&lt;div&gt;Payment service&lt;/div&gt;" style="ellipse;whiteSpace=wrap;html=1;aspect=fixed;" vertex="1" parent="1">
          <mxGeometry x="1580" y="690" width="70" height="70" as="geometry" />
        </mxCell>
        <mxCell id="S_Y1Q7DFmcPcI0DwbEz_-110" value="Key Access" style="text;html=1;align=center;verticalAlign=middle;resizable=0;points=[];autosize=1;strokeColor=none;fillColor=none;" vertex="1" parent="1">
          <mxGeometry x="1380" y="365" width="90" height="30" as="geometry" />
        </mxCell>
        <mxCell id="S_Y1Q7DFmcPcI0DwbEz_-111" style="edgeStyle=orthogonalEdgeStyle;rounded=0;orthogonalLoop=1;jettySize=auto;html=1;entryX=0;entryY=0.5;entryDx=0;entryDy=0;" edge="1" parent="1" source="S_Y1Q7DFmcPcI0DwbEz_-112" target="S_Y1Q7DFmcPcI0DwbEz_-114">
          <mxGeometry relative="1" as="geometry" />
        </mxCell>
        <mxCell id="S_Y1Q7DFmcPcI0DwbEz_-112" value="" style="strokeColor=#dddddd;shadow=1;strokeWidth=1;rounded=1;absoluteArcSize=1;arcSize=2;" vertex="1" parent="1">
          <mxGeometry x="1460" y="1000" width="120" height="60" as="geometry" />
        </mxCell>
        <mxCell id="S_Y1Q7DFmcPcI0DwbEz_-113" value="&lt;font color=&quot;#000000&quot;&gt;Logging&lt;/font&gt;" style="editableCssRules=.*;html=1;fontColor=#999999;shape=image;verticalLabelPosition=middle;verticalAlign=middle;labelPosition=right;align=left;spacingLeft=20;part=1;points=[];imageAspect=0;image=data:image/svg+xml,PHN2ZyB4bWxucz0iaHR0cDovL3d3dy53My5vcmcvMjAwMC9zdmciIHhtbG5zOnY9Imh0dHBzOi8vdmVjdGEuaW8vbmFubyIgd2lkdGg9IjIwIiBoZWlnaHQ9IjE5IiB2aWV3Qm94PSIwIDAgMjAgMTkiPiYjeGE7CTxzdHlsZSB0eXBlPSJ0ZXh0L2NzcyI+JiN4YTsJLnN0MHtmaWxsOiM0Mjg1ZjQ7fSYjeGE7CS5zdDF7ZmlsbDojNjY5ZGY2O30mI3hhOwkuc3Qye2ZpbGw6I2FlY2JmYTt9JiN4YTsJPC9zdHlsZT4mI3hhOwk8ZyBjbGFzcz0ic3QwIj4mI3hhOwkJPHBhdGggZD0iTTQgOWg0djJINHptLTIgN2g2djJIMnoiLz4mI3hhOwkJPHBhdGggZD0iTTQgNEgydjEyaDJ6Ii8+JiN4YTsJPC9nPiYjeGE7CTxwYXRoIGNsYXNzPSJzdDEiIGQ9Ik0yMCAxSDd2NGgxM3ptMCA3SDd2NGgxM3ptMCA3SDd2NGgxM3oiLz4mI3hhOwk8cGF0aCBjbGFzcz0ic3QyIiBkPSJNNiAwSDB2Nmg2eiIvPiYjeGE7PC9zdmc+;" vertex="1" parent="S_Y1Q7DFmcPcI0DwbEz_-112">
          <mxGeometry width="30" height="28" relative="1" as="geometry">
            <mxPoint x="15" y="16" as="offset" />
          </mxGeometry>
        </mxCell>
        <mxCell id="S_Y1Q7DFmcPcI0DwbEz_-114" value="" style="strokeColor=#dddddd;shadow=1;strokeWidth=1;rounded=1;absoluteArcSize=1;arcSize=2;" vertex="1" parent="1">
          <mxGeometry x="1635" y="1000" width="190" height="60" as="geometry" />
        </mxCell>
        <mxCell id="S_Y1Q7DFmcPcI0DwbEz_-115" value="&lt;font color=&quot;#000000&quot;&gt;Monitoring&lt;/font&gt;" style="editableCssRules=.*;html=1;fontColor=#999999;shape=image;verticalLabelPosition=middle;verticalAlign=middle;labelPosition=right;align=left;spacingLeft=20;part=1;points=[];imageAspect=0;image=data:image/svg+xml,PHN2ZyB4bWxucz0iaHR0cDovL3d3dy53My5vcmcvMjAwMC9zdmciIHhtbG5zOnY9Imh0dHBzOi8vdmVjdGEuaW8vbmFubyIgd2lkdGg9IjIwIiBoZWlnaHQ9IjEzLjUyOTk5OTczMjk3MTE5MSIgdmlld0JveD0iLTIuOTMyMDk3ODk3ODEyMDE0ZS05IC01LjI1ODAxNTA0MTgzNzk1NmUtMTUgMjAgMTMuNTI5OTk5NzMyOTcxMTkxIj4mI3hhOwk8c3R5bGUgdHlwZT0idGV4dC9jc3MiPiYjeGE7CS5zdDB7ZmlsbDojNDI4NWY0O30mI3hhOwkuc3Qxe2ZpbGw6IzY2OWRmNjt9JiN4YTsJPC9zdHlsZT4mI3hhOwk8cGF0aCBjbGFzcz0ic3QxIiBkPSJNOC44MyAxMC41OGgyLjMzdjIuNjRIOC44M3oiLz4mI3hhOwk8cGF0aCBjbGFzcz0ic3QwIiBkPSJNMTYuNDggOC42MWEuNTYuNTYgMCAwIDEtLjQtLjE3TDEyIDQuMjEgOS4yNiA3LjFhLjU3LjU3IDAgMCAxLS43Ni4wNUw2LjQyIDUuNDdsLTIuMiAyLjkyYS41Ni41NiAwIDAgMS0uNDUuMjJIMHYxLjcxYS43NS43NSAwIDAgMCAuNzQuNzVoMTguNTJhLjc1Ljc1IDAgMCAwIC43NC0uNzVWOC42MXoiLz4mI3hhOwk8cGF0aCBjbGFzcz0ic3QxIiBkPSJNMy41IDcuNWwyLjM4LTMuMTZhLjU1LjU1IDAgMCAxIC4zNy0uMjIuNjMuNjMgMCAwIDEgLjQyLjEybDIuMTIgMS43MiAyLjgtMi45NGEuNTQuNTQgMCAwIDEgLjQtLjE3aDBhLjU0LjU0IDAgMCAxIC40LjE3bDQuMzMgNC40OEgyMFYuNzRhLjc0Ljc0IDAgMCAwLS43NC0uNzRILjc0QS43NC43NCAwIDAgMCAwIC43NHY2LjgxeiIvPiYjeGE7CTxyZWN0IGNsYXNzPSJzdDAiIHg9IjYuNjciIHk9IjEyLjkyIiB3aWR0aD0iNi42NyIgaGVpZ2h0PSIuNjEiIHJ4PSIuMyIvPiYjeGE7PC9zdmc+;" vertex="1" parent="S_Y1Q7DFmcPcI0DwbEz_-114">
          <mxGeometry width="30" height="21" relative="1" as="geometry">
            <mxPoint x="15" y="19" as="offset" />
          </mxGeometry>
        </mxCell>
        <mxCell id="S_Y1Q7DFmcPcI0DwbEz_-116" value="Log Events" style="text;html=1;align=center;verticalAlign=middle;resizable=0;points=[];autosize=1;strokeColor=none;fillColor=none;" vertex="1" parent="1">
          <mxGeometry x="1555" y="930" width="80" height="30" as="geometry" />
        </mxCell>
        <mxCell id="S_Y1Q7DFmcPcI0DwbEz_-117" style="edgeStyle=orthogonalEdgeStyle;rounded=0;orthogonalLoop=1;jettySize=auto;html=1;entryX=0.599;entryY=-0.027;entryDx=0;entryDy=0;entryPerimeter=0;" edge="1" parent="1" source="S_Y1Q7DFmcPcI0DwbEz_-2" target="S_Y1Q7DFmcPcI0DwbEz_-1">
          <mxGeometry relative="1" as="geometry" />
        </mxCell>
        <mxCell id="S_Y1Q7DFmcPcI0DwbEz_-118" value="Log Events" style="text;html=1;align=center;verticalAlign=middle;resizable=0;points=[];autosize=1;strokeColor=none;fillColor=none;" vertex="1" parent="1">
          <mxGeometry x="1600" y="870" width="80" height="30" as="geometry" />
        </mxCell>
        <mxCell id="S_Y1Q7DFmcPcI0DwbEz_-119" style="edgeStyle=orthogonalEdgeStyle;rounded=0;orthogonalLoop=1;jettySize=auto;html=1;entryX=0.448;entryY=1.042;entryDx=0;entryDy=0;entryPerimeter=0;" edge="1" parent="1" source="S_Y1Q7DFmcPcI0DwbEz_-76" target="S_Y1Q7DFmcPcI0DwbEz_-73">
          <mxGeometry relative="1" as="geometry" />
        </mxCell>
        <mxCell id="S_Y1Q7DFmcPcI0DwbEz_-177" value="Threat" style="shape=table;startSize=30;container=1;collapsible=0;childLayout=tableLayout;fillColor=#a20025;strokeColor=#6F0000;fontStyle=1;shadow=1;swimlaneFillColor=#FFFFFF;fontColor=#ffffff;whiteSpace=wrap;html=1;" vertex="1" parent="1">
          <mxGeometry x="2476" y="665" width="760" height="225" as="geometry" />
        </mxCell>
        <mxCell id="S_Y1Q7DFmcPcI0DwbEz_-178" value="" style="shape=tableRow;horizontal=0;startSize=0;swimlaneHead=0;swimlaneBody=0;strokeColor=inherit;top=0;left=0;bottom=0;right=0;collapsible=0;dropTarget=0;fillColor=inherit;points=[[0,0.5],[1,0.5]];portConstraint=eastwest;fontSize=16;fontColor=#000000;" vertex="1" parent="S_Y1Q7DFmcPcI0DwbEz_-177">
          <mxGeometry y="30" width="760" height="40" as="geometry" />
        </mxCell>
        <mxCell id="S_Y1Q7DFmcPcI0DwbEz_-179" value="ID" style="html=1;whiteSpace=wrap;connectable=0;strokeColor=inherit;overflow=hidden;fillColor=none;pointerEvents=1;fontColor=#000000;fontStyle=1" vertex="1" parent="S_Y1Q7DFmcPcI0DwbEz_-178">
          <mxGeometry width="253" height="40" as="geometry">
            <mxRectangle width="253" height="40" as="alternateBounds" />
          </mxGeometry>
        </mxCell>
        <mxCell id="S_Y1Q7DFmcPcI0DwbEz_-180" value="Description" style="html=1;whiteSpace=wrap;connectable=0;strokeColor=inherit;overflow=hidden;fillColor=none;pointerEvents=1;fontColor=#000000;fontStyle=1" vertex="1" parent="S_Y1Q7DFmcPcI0DwbEz_-178">
          <mxGeometry x="253" width="507" height="40" as="geometry">
            <mxRectangle width="507" height="40" as="alternateBounds" />
          </mxGeometry>
        </mxCell>
        <mxCell id="S_Y1Q7DFmcPcI0DwbEz_-181" value="" style="shape=tableRow;horizontal=0;startSize=0;swimlaneHead=0;swimlaneBody=0;strokeColor=inherit;top=0;left=0;bottom=0;right=0;collapsible=0;dropTarget=0;fillColor=none;points=[[0,0.5],[1,0.5]];portConstraint=eastwest;fontSize=16;fontColor=#000000;" vertex="1" parent="S_Y1Q7DFmcPcI0DwbEz_-177">
          <mxGeometry y="70" width="760" height="40" as="geometry" />
        </mxCell>
        <mxCell id="S_Y1Q7DFmcPcI0DwbEz_-182" value="T02" style="html=1;whiteSpace=wrap;connectable=0;strokeColor=inherit;overflow=hidden;fillColor=none;pointerEvents=1;fontColor=#000000;fontStyle=1" vertex="1" parent="S_Y1Q7DFmcPcI0DwbEz_-181">
          <mxGeometry width="253" height="40" as="geometry">
            <mxRectangle width="253" height="40" as="alternateBounds" />
          </mxGeometry>
        </mxCell>
        <mxCell id="S_Y1Q7DFmcPcI0DwbEz_-183" value="" style="html=1;whiteSpace=wrap;connectable=0;strokeColor=inherit;overflow=hidden;fillColor=none;pointerEvents=1;fontColor=#000000;fontStyle=1" vertex="1" parent="S_Y1Q7DFmcPcI0DwbEz_-181">
          <mxGeometry x="253" width="507" height="40" as="geometry">
            <mxRectangle width="507" height="40" as="alternateBounds" />
          </mxGeometry>
        </mxCell>
        <mxCell id="S_Y1Q7DFmcPcI0DwbEz_-184" style="shape=tableRow;horizontal=0;startSize=0;swimlaneHead=0;swimlaneBody=0;strokeColor=inherit;top=0;left=0;bottom=0;right=0;collapsible=0;dropTarget=0;fillColor=none;points=[[0,0.5],[1,0.5]];portConstraint=eastwest;fontSize=16;fontColor=#000000;" vertex="1" parent="S_Y1Q7DFmcPcI0DwbEz_-177">
          <mxGeometry y="110" width="760" height="35" as="geometry" />
        </mxCell>
        <mxCell id="S_Y1Q7DFmcPcI0DwbEz_-185" value="Risco" style="html=1;whiteSpace=wrap;connectable=0;strokeColor=inherit;overflow=hidden;fillColor=none;pointerEvents=1;fontColor=#000000;fontStyle=1" vertex="1" parent="S_Y1Q7DFmcPcI0DwbEz_-184">
          <mxGeometry width="253" height="35" as="geometry">
            <mxRectangle width="253" height="35" as="alternateBounds" />
          </mxGeometry>
        </mxCell>
        <mxCell id="S_Y1Q7DFmcPcI0DwbEz_-186" value="" style="html=1;whiteSpace=wrap;connectable=0;strokeColor=inherit;overflow=hidden;fillColor=none;pointerEvents=1;fontColor=#000000;fontStyle=1" vertex="1" parent="S_Y1Q7DFmcPcI0DwbEz_-184">
          <mxGeometry x="253" width="507" height="35" as="geometry">
            <mxRectangle width="507" height="35" as="alternateBounds" />
          </mxGeometry>
        </mxCell>
        <mxCell id="S_Y1Q7DFmcPcI0DwbEz_-187" style="shape=tableRow;horizontal=0;startSize=0;swimlaneHead=0;swimlaneBody=0;strokeColor=inherit;top=0;left=0;bottom=0;right=0;collapsible=0;dropTarget=0;fillColor=none;points=[[0,0.5],[1,0.5]];portConstraint=eastwest;fontSize=16;fontColor=#000000;" vertex="1" parent="S_Y1Q7DFmcPcI0DwbEz_-177">
          <mxGeometry y="145" width="760" height="40" as="geometry" />
        </mxCell>
        <mxCell id="S_Y1Q7DFmcPcI0DwbEz_-188" value="Agente de ameaÃ§a" style="html=1;whiteSpace=wrap;connectable=0;strokeColor=inherit;overflow=hidden;fillColor=none;pointerEvents=1;fontColor=#000000;fontStyle=1" vertex="1" parent="S_Y1Q7DFmcPcI0DwbEz_-187">
          <mxGeometry width="253" height="40" as="geometry">
            <mxRectangle width="253" height="40" as="alternateBounds" />
          </mxGeometry>
        </mxCell>
        <mxCell id="S_Y1Q7DFmcPcI0DwbEz_-189" value="" style="html=1;whiteSpace=wrap;connectable=0;strokeColor=inherit;overflow=hidden;fillColor=none;pointerEvents=1;fontColor=#000000;fontStyle=1" vertex="1" parent="S_Y1Q7DFmcPcI0DwbEz_-187">
          <mxGeometry x="253" width="507" height="40" as="geometry">
            <mxRectangle width="507" height="40" as="alternateBounds" />
          </mxGeometry>
        </mxCell>
        <mxCell id="S_Y1Q7DFmcPcI0DwbEz_-190" style="shape=tableRow;horizontal=0;startSize=0;swimlaneHead=0;swimlaneBody=0;strokeColor=inherit;top=0;left=0;bottom=0;right=0;collapsible=0;dropTarget=0;fillColor=none;points=[[0,0.5],[1,0.5]];portConstraint=eastwest;fontSize=16;fontColor=#000000;" vertex="1" parent="S_Y1Q7DFmcPcI0DwbEz_-177">
          <mxGeometry y="185" width="760" height="40" as="geometry" />
        </mxCell>
        <mxCell id="S_Y1Q7DFmcPcI0DwbEz_-191" value="Ativo" style="html=1;whiteSpace=wrap;connectable=0;strokeColor=inherit;overflow=hidden;fillColor=none;pointerEvents=1;fontColor=#000000;fontStyle=1" vertex="1" parent="S_Y1Q7DFmcPcI0DwbEz_-190">
          <mxGeometry width="253" height="40" as="geometry">
            <mxRectangle width="253" height="40" as="alternateBounds" />
          </mxGeometry>
        </mxCell>
        <mxCell id="S_Y1Q7DFmcPcI0DwbEz_-192" value="" style="html=1;whiteSpace=wrap;connectable=0;strokeColor=inherit;overflow=hidden;fillColor=none;pointerEvents=1;fontColor=#000000;fontStyle=1" vertex="1" parent="S_Y1Q7DFmcPcI0DwbEz_-190">
          <mxGeometry x="253" width="507" height="40" as="geometry">
            <mxRectangle width="507" height="40" as="alternateBounds" />
          </mxGeometry>
        </mxCell>
        <mxCell id="S_Y1Q7DFmcPcI0DwbEz_-193" value="Threat" style="shape=table;startSize=30;container=1;collapsible=0;childLayout=tableLayout;fillColor=#a20025;strokeColor=#6F0000;fontStyle=1;shadow=1;swimlaneFillColor=#FFFFFF;fontColor=#ffffff;whiteSpace=wrap;html=1;" vertex="1" parent="1">
          <mxGeometry x="2481" y="910" width="760" height="225" as="geometry" />
        </mxCell>
        <mxCell id="S_Y1Q7DFmcPcI0DwbEz_-194" value="" style="shape=tableRow;horizontal=0;startSize=0;swimlaneHead=0;swimlaneBody=0;strokeColor=inherit;top=0;left=0;bottom=0;right=0;collapsible=0;dropTarget=0;fillColor=inherit;points=[[0,0.5],[1,0.5]];portConstraint=eastwest;fontSize=16;fontColor=#000000;" vertex="1" parent="S_Y1Q7DFmcPcI0DwbEz_-193">
          <mxGeometry y="30" width="760" height="40" as="geometry" />
        </mxCell>
        <mxCell id="S_Y1Q7DFmcPcI0DwbEz_-195" value="ID" style="html=1;whiteSpace=wrap;connectable=0;strokeColor=inherit;overflow=hidden;fillColor=none;pointerEvents=1;fontColor=#000000;fontStyle=1" vertex="1" parent="S_Y1Q7DFmcPcI0DwbEz_-194">
          <mxGeometry width="253" height="40" as="geometry">
            <mxRectangle width="253" height="40" as="alternateBounds" />
          </mxGeometry>
        </mxCell>
        <mxCell id="S_Y1Q7DFmcPcI0DwbEz_-196" value="Description" style="html=1;whiteSpace=wrap;connectable=0;strokeColor=inherit;overflow=hidden;fillColor=none;pointerEvents=1;fontColor=#000000;fontStyle=1" vertex="1" parent="S_Y1Q7DFmcPcI0DwbEz_-194">
          <mxGeometry x="253" width="507" height="40" as="geometry">
            <mxRectangle width="507" height="40" as="alternateBounds" />
          </mxGeometry>
        </mxCell>
        <mxCell id="S_Y1Q7DFmcPcI0DwbEz_-197" value="" style="shape=tableRow;horizontal=0;startSize=0;swimlaneHead=0;swimlaneBody=0;strokeColor=inherit;top=0;left=0;bottom=0;right=0;collapsible=0;dropTarget=0;fillColor=none;points=[[0,0.5],[1,0.5]];portConstraint=eastwest;fontSize=16;fontColor=#000000;" vertex="1" parent="S_Y1Q7DFmcPcI0DwbEz_-193">
          <mxGeometry y="70" width="760" height="40" as="geometry" />
        </mxCell>
        <mxCell id="S_Y1Q7DFmcPcI0DwbEz_-198" value="T03" style="html=1;whiteSpace=wrap;connectable=0;strokeColor=inherit;overflow=hidden;fillColor=none;pointerEvents=1;fontColor=#000000;fontStyle=1" vertex="1" parent="S_Y1Q7DFmcPcI0DwbEz_-197">
          <mxGeometry width="253" height="40" as="geometry">
            <mxRectangle width="253" height="40" as="alternateBounds" />
          </mxGeometry>
        </mxCell>
        <mxCell id="S_Y1Q7DFmcPcI0DwbEz_-199" value="" style="html=1;whiteSpace=wrap;connectable=0;strokeColor=inherit;overflow=hidden;fillColor=none;pointerEvents=1;fontColor=#000000;fontStyle=1" vertex="1" parent="S_Y1Q7DFmcPcI0DwbEz_-197">
          <mxGeometry x="253" width="507" height="40" as="geometry">
            <mxRectangle width="507" height="40" as="alternateBounds" />
          </mxGeometry>
        </mxCell>
        <mxCell id="S_Y1Q7DFmcPcI0DwbEz_-200" style="shape=tableRow;horizontal=0;startSize=0;swimlaneHead=0;swimlaneBody=0;strokeColor=inherit;top=0;left=0;bottom=0;right=0;collapsible=0;dropTarget=0;fillColor=none;points=[[0,0.5],[1,0.5]];portConstraint=eastwest;fontSize=16;fontColor=#000000;" vertex="1" parent="S_Y1Q7DFmcPcI0DwbEz_-193">
          <mxGeometry y="110" width="760" height="35" as="geometry" />
        </mxCell>
        <mxCell id="S_Y1Q7DFmcPcI0DwbEz_-201" value="Risco" style="html=1;whiteSpace=wrap;connectable=0;strokeColor=inherit;overflow=hidden;fillColor=none;pointerEvents=1;fontColor=#000000;fontStyle=1" vertex="1" parent="S_Y1Q7DFmcPcI0DwbEz_-200">
          <mxGeometry width="253" height="35" as="geometry">
            <mxRectangle width="253" height="35" as="alternateBounds" />
          </mxGeometry>
        </mxCell>
        <mxCell id="S_Y1Q7DFmcPcI0DwbEz_-202" value="" style="html=1;whiteSpace=wrap;connectable=0;strokeColor=inherit;overflow=hidden;fillColor=none;pointerEvents=1;fontColor=#000000;fontStyle=1" vertex="1" parent="S_Y1Q7DFmcPcI0DwbEz_-200">
          <mxGeometry x="253" width="507" height="35" as="geometry">
            <mxRectangle width="507" height="35" as="alternateBounds" />
          </mxGeometry>
        </mxCell>
        <mxCell id="S_Y1Q7DFmcPcI0DwbEz_-203" style="shape=tableRow;horizontal=0;startSize=0;swimlaneHead=0;swimlaneBody=0;strokeColor=inherit;top=0;left=0;bottom=0;right=0;collapsible=0;dropTarget=0;fillColor=none;points=[[0,0.5],[1,0.5]];portConstraint=eastwest;fontSize=16;fontColor=#000000;" vertex="1" parent="S_Y1Q7DFmcPcI0DwbEz_-193">
          <mxGeometry y="145" width="760" height="40" as="geometry" />
        </mxCell>
        <mxCell id="S_Y1Q7DFmcPcI0DwbEz_-204" value="Agente de ameaÃ§a" style="html=1;whiteSpace=wrap;connectable=0;strokeColor=inherit;overflow=hidden;fillColor=none;pointerEvents=1;fontColor=#000000;fontStyle=1" vertex="1" parent="S_Y1Q7DFmcPcI0DwbEz_-203">
          <mxGeometry width="253" height="40" as="geometry">
            <mxRectangle width="253" height="40" as="alternateBounds" />
          </mxGeometry>
        </mxCell>
        <mxCell id="S_Y1Q7DFmcPcI0DwbEz_-205" value="" style="html=1;whiteSpace=wrap;connectable=0;strokeColor=inherit;overflow=hidden;fillColor=none;pointerEvents=1;fontColor=#000000;fontStyle=1" vertex="1" parent="S_Y1Q7DFmcPcI0DwbEz_-203">
          <mxGeometry x="253" width="507" height="40" as="geometry">
            <mxRectangle width="507" height="40" as="alternateBounds" />
          </mxGeometry>
        </mxCell>
        <mxCell id="S_Y1Q7DFmcPcI0DwbEz_-206" style="shape=tableRow;horizontal=0;startSize=0;swimlaneHead=0;swimlaneBody=0;strokeColor=inherit;top=0;left=0;bottom=0;right=0;collapsible=0;dropTarget=0;fillColor=none;points=[[0,0.5],[1,0.5]];portConstraint=eastwest;fontSize=16;fontColor=#000000;" vertex="1" parent="S_Y1Q7DFmcPcI0DwbEz_-193">
          <mxGeometry y="185" width="760" height="40" as="geometry" />
        </mxCell>
        <mxCell id="S_Y1Q7DFmcPcI0DwbEz_-207" value="Ativo" style="html=1;whiteSpace=wrap;connectable=0;strokeColor=inherit;overflow=hidden;fillColor=none;pointerEvents=1;fontColor=#000000;fontStyle=1" vertex="1" parent="S_Y1Q7DFmcPcI0DwbEz_-206">
          <mxGeometry width="253" height="40" as="geometry">
            <mxRectangle width="253" height="40" as="alternateBounds" />
          </mxGeometry>
        </mxCell>
        <mxCell id="S_Y1Q7DFmcPcI0DwbEz_-208" value="" style="html=1;whiteSpace=wrap;connectable=0;strokeColor=inherit;overflow=hidden;fillColor=none;pointerEvents=1;fontColor=#000000;fontStyle=1" vertex="1" parent="S_Y1Q7DFmcPcI0DwbEz_-206">
          <mxGeometry x="253" width="507" height="40" as="geometry">
            <mxRectangle width="507" height="40" as="alternateBounds" />
          </mxGeometry>
        </mxCell>
      </root>
    </mxGraphModel>
  </diagram>
</mxfile>
